<?xml version="1.0" encoding="UTF-8"?>
<svg xmlns="http://www.w3.org/2000/svg" viewBox="0 0 1000 470" width="1000" height="470" role="img" aria-labelledby="title desc">
  <title id="title">Red-Black insert — RL case</title>
  <desc id="desc">Черный дядя, ломаная форма RL: сначала правый поворот у родителя, затем левый поворот у деда и перекраска.</desc>
  <defs>
    <marker id="arrow" markerWidth="10" markerHeight="8" refX="9" refY="4" orient="auto" markerUnits="strokeWidth">
      <path d="M0,0 L10,4 L0,8 Z" fill="#111"/>
    </marker>
  </defs>
  <rect width="1000" height="470" fill="#fff"/>
  <style>
    .line{stroke:#111;stroke-width:2.2;fill:none;stroke-linecap:round;stroke-linejoin:round}
    .red{fill:#d62828;stroke:#111;stroke-width:2.2}
    .black{fill:#111;stroke:#111;stroke-width:2.2}
    text{font-family:Arial, Helvetica, sans-serif;font-size:17px;fill:#111;text-anchor:middle;dominant-baseline:middle}
    .title{font-size:20px;font-weight:700}
    .small{font-size:14px}
    .white{fill:#fff}
    .redText{fill:#b00020;font-weight:700}
    .greenText{fill:#147a2e;font-weight:700}
  </style>
  <text class="title" x="185" y="28">1. До: ломаная RL</text>
  <text class="title" x="490" y="28">2. Поворот right(P)</text>
  <text class="title" x="795" y="28">3. Поворот left(G) + цвета</text>
  <line class="line" x1="185" y1="82" x2="105" y2="150"/>
  <line class="line" x1="185" y1="82" x2="265" y2="150"/>
  <line class="line" x1="265" y1="195" x2="215" y2="255"/>
  <circle class="black" cx="185" cy="70" r="23"/><text class="white" x="185" y="70">G</text>
  <circle class="black" cx="105" cy="175" r="23"/><text class="white" x="105" y="175">U</text>
  <circle class="red" cx="265" cy="175" r="23"/><text class="white" x="265" y="175">P</text>
  <circle class="red" cx="215" cy="275" r="23"/><text class="white" x="215" y="275">N</text>
  <text class="redText" x="185" y="340">N слева от P, P справа от G</text>
  <path class="line" d="M 310 175 C 360 130, 405 130, 445 165" marker-end="url(#arrow)"/>
  <line class="line" x1="490" y1="82" x2="410" y2="150"/>
  <line class="line" x1="490" y1="82" x2="570" y2="150"/>
  <line class="line" x1="570" y1="195" x2="620" y2="255"/>
  <circle class="black" cx="490" cy="70" r="23"/><text class="white" x="490" y="70">G</text>
  <circle class="black" cx="410" cy="175" r="23"/><text class="white" x="410" y="175">U</text>
  <circle class="red" cx="570" cy="175" r="23"/><text class="white" x="570" y="175">N</text>
  <circle class="red" cx="620" cy="275" r="23"/><text class="white" x="620" y="275">P</text>
  <text class="small" x="490" y="340">получили прямой RR</text>
  <path class="line" d="M 615 175 C 665 130, 710 130, 750 165" marker-end="url(#arrow)"/>
  <line class="line" x1="795" y1="82" x2="715" y2="150"/>
  <line class="line" x1="795" y1="82" x2="875" y2="150"/>
  <line class="line" x1="715" y1="195" x2="665" y2="260"/>
  <circle class="black" cx="795" cy="70" r="23"/><text class="white" x="795" y="70">N</text>
  <circle class="red" cx="715" cy="175" r="23"/><text class="white" x="715" y="175">G</text>
  <circle class="black" cx="665" cy="285" r="23"/><text class="white" x="665" y="285">U</text>
  <circle class="red" cx="875" cy="175" r="23"/><text class="white" x="875" y="175">P</text>
  <text class="greenText" x="795" y="365">N черный, G красный</text>
  <text class="small" x="665" y="325">U сохранился</text>
</svg>
